<?xml version="1.0" standalone="no"?>
<!DOCTYPE svg PUBLIC "-//W3C//DTD SVG 20010904//EN"
 "http://www.w3.org/TR/2001/REC-SVG-20010904/DTD/svg10.dtd">
<svg version="1.0" xmlns="http://www.w3.org/2000/svg"
 width="16.000000pt" height="16.000000pt" viewBox="0 0 16.000000 16.000000"
 preserveAspectRatio="xMidYMid meet">
<metadata>
Created by potrace 1.11, written by Peter Selinger 2001-2013
</metadata>
<g transform="translate(0.000000,16.000000) scale(0.006154,-0.006154)"
fill="#000000" stroke="none">
<path d="M837 2585 c-50 -29 -63 -106 -24 -150 15 -18 36 -28 64 -32 37 -5 45
-2 73 25 81 82 -13 212 -113 157z"/>
<path d="M1097 2573 c-4 -3 -7 -39 -7 -80 l0 -73 290 0 291 0 -3 78 -3 77
-281 3 c-154 1 -283 -1 -287 -5z"/>
<path d="M590 2261 c-83 -26 -151 -82 -191 -161 -34 -67 -33 -186 3 -255 53
-102 139 -156 258 -163 95 -5 170 21 230 79 155 151 102 414 -97 489 -55 20
-154 26 -203 11z m154 -145 c53 -22 81 -70 81 -141 0 -71 -28 -119 -81 -141
-124 -52 -247 52 -213 181 25 94 121 140 213 101z"/>
<path d="M1340 2195 c0 -69 2 -75 20 -75 20 0 20 -1 -2 -42 -18 -34 -23 -59
-23 -123 0 -94 20 -140 84 -198 53 -48 88 -65 155 -75 140 -22 265 38 323 156
37 75 39 178 5 236 -12 20 -22 40 -22 43 0 11 99 -6 129 -22 40 -20 59 -51 67
-106 8 -58 -9 -117 -46 -164 l-31 -39 48 -48 47 -48 23 22 c13 12 38 52 56 87
30 61 32 73 32 166 0 93 -3 106 -30 161 -36 70 -97 116 -175 133 -31 7 -174
11 -355 11 l-305 0 0 -75z m398 -98 c99 -106 35 -267 -107 -267 -143 0 -212
149 -119 255 30 35 30 35 117 35 78 0 90 -2 109 -23z"/>
<path d="M900 1500 l0 -70 110 0 110 0 0 -345 0 -345 80 0 80 0 0 345 0 345
110 0 110 0 0 70 0 70 -300 0 -300 0 0 -70z"/>
<path d="M910 530 c0 -63 2 -70 20 -70 25 0 25 -1 -1 -52 -46 -90 -31 -217 35
-294 18 -22 58 -53 87 -69 49 -27 62 -30 149 -30 87 0 100 3 148 30 59 32 91
66 125 129 31 58 31 174 -1 233 -27 51 -27 53 -2 53 18 0 20 7 20 70 l0 70
-290 0 -290 0 0 -70z m402 -107 c52 -54 60 -111 27 -180 -53 -109 -225 -110
-280 -1 -23 45 -24 77 -4 126 31 72 48 82 145 82 81 0 88 -2 112 -27z"/>
</g>
</svg>
